<svg width="30" height="53" viewBox="0 0 30 53" fill="none" xmlns="http://www.w3.org/2000/svg">
<path d="M19.0764 29.2178C18.9224 29.2178 18.8454 29.1408 18.7684 29.0638L18.6914 28.7558H18.6144C18.4604 28.0628 17.9984 26.5228 17.4594 24.7518C14.6874 15.5887 14.7644 15.0497 15.3034 14.7416C15.3804 14.6646 15.6114 14.5876 15.8424 14.7416L15.9194 14.5876C16.9974 15.3577 26.0835 22.4417 24.6975 26.6768V26.7538L24.6205 26.8308C24.5435 26.9078 22.7725 28.5248 21.3865 27.9858C19.9235 28.9868 19.3845 29.2178 19.0764 29.2178ZM16.3814 17.5907C16.9204 19.5927 17.7674 22.5187 18.3834 24.5208C18.8454 25.9838 19.2305 27.2928 19.4615 28.0628C19.6925 27.9088 20.0775 27.7548 20.6165 27.3698C20.0005 26.4458 19.1534 24.3668 17.9984 21.4407C17.4594 20.1317 16.8434 18.7457 16.3814 17.5907ZM17.0744 16.8207C17.5364 17.8987 18.1524 19.2847 18.8454 21.0557C19.7695 23.4428 21.0785 26.6768 21.5405 27.0618C22.1565 27.5238 23.3115 26.7538 23.7735 26.2918C24.4665 23.7508 20.1545 19.3617 17.0744 16.8207Z" fill="white"/>
<path d="M15.9964 30.6038C15.6884 30.6038 15.4573 30.5268 15.0723 30.4498C14.6873 30.5268 13.5323 30.6808 12.9163 29.9108C12.6853 29.6028 12.5313 29.2178 12.5313 28.7558C12.3773 28.8328 12.2233 28.9098 11.9923 28.9868C10.9913 29.2948 9.68228 28.2168 9.29728 27.8318C8.91227 27.5238 7.75726 26.3688 7.91126 25.4447C7.98826 25.1367 8.21926 24.9057 8.52727 24.8287C9.22028 24.5207 12.3773 19.5927 14.9953 14.9726L15.6884 13.7406L16.1504 17.7446V17.9757C16.1504 18.0527 16.1504 18.1297 16.1504 18.2067L16.4584 18.1297C16.7664 19.1307 19.6924 27.6008 17.5364 29.9878C17.1514 30.3728 16.6124 30.6038 15.9964 30.6038ZM15.1493 29.4488H15.3033C16.3814 29.7568 16.7664 29.3718 16.8434 29.2178C17.9984 27.9858 17.1514 23.4427 16.1504 20.0547C15.9964 21.8257 15.6114 22.9037 14.1483 26.4458C14.0713 26.5998 13.9943 26.7538 13.9943 26.9078C13.9943 26.9078 13.9173 27.1388 13.7633 27.4468C13.4553 28.2938 13.4553 28.9868 13.7633 29.2948C14.1483 29.7568 15.0723 29.5258 15.0723 29.5258L15.1493 29.4488ZM8.91227 25.8297C8.98927 26.0607 9.45128 26.7538 10.2983 27.4468C11.0683 28.0628 11.6073 28.2168 11.7613 28.1398C12.3773 27.9858 12.6853 27.4468 12.8393 27.1388C12.9163 26.8308 13.0703 26.5228 13.2243 26.1377C15.1493 21.6717 15.1493 21.4407 15.2263 18.0527V17.8217L15.0723 16.8206C13.3783 19.7467 10.0673 25.2907 8.91227 25.8297Z" fill="white"/>
<path d="M9.52832 28.9868C8.83531 28.9868 8.0653 28.7558 7.44929 28.4478C6.83329 28.1398 5.83228 27.3698 5.83228 26.5228C5.83228 26.1378 5.98628 25.7528 6.37128 25.4448C6.98729 24.9828 10.3753 20.9017 12.3004 18.3607C13.4554 17.1287 14.5334 15.5117 14.3024 14.9727L15.2264 14.5876C15.7654 15.8967 13.6864 18.2837 12.9934 18.9767C12.4544 19.5927 7.8343 25.5218 6.83329 26.2148C6.67929 26.2918 6.67929 26.3688 6.67929 26.4458C6.67929 26.7538 7.21829 27.2928 7.8343 27.6008C8.68131 27.9858 9.68232 28.2168 10.1443 27.8318L10.7603 28.5248C10.5293 28.9098 10.0673 28.9868 9.52832 28.9868Z" fill="white"/>
<path d="M4.67706 26.0607L4.52306 25.8297C2.98304 24.2897 2.29004 23.0577 2.44404 22.2107C2.52104 21.9027 2.59804 21.7487 2.67504 21.5947C2.29004 20.9017 1.82803 19.7467 2.29004 18.5916L2.44404 18.3606H2.75204C2.82904 18.3606 7.7571 18.4376 10.4521 16.4356L10.5291 16.3586C10.6831 16.2816 13.6862 14.6646 14.6872 14.2796C15.1492 14.1256 15.3802 14.3566 15.4572 14.4336C15.6882 14.7416 15.8422 15.0496 12.8392 18.1296C12.4542 18.7456 9.75912 22.2877 3.29105 22.3647C3.29105 22.5957 3.44505 23.3657 4.98507 24.9827C5.75508 24.7517 7.9111 24.0587 8.83511 22.7497L9.60512 23.2887C8.29611 25.2137 5.06207 25.9837 4.90807 25.9837L4.67706 26.0607ZM3.06004 19.3616C2.90604 20.1317 3.36805 21.0557 3.59905 21.4407C9.52812 21.2097 11.9151 17.7446 11.9921 17.7446L12.0692 17.6676C12.6082 17.1286 13.2242 16.5126 13.6862 15.9736C12.5312 16.5126 11.2221 17.2056 10.9911 17.3596C8.45011 19.2076 4.36906 19.3616 3.06004 19.3616Z" fill="white"/>
<path d="M4.75417 18.8996C3.21416 18.8996 1.59714 18.5916 0.827127 17.5136C-0.404888 15.8196 0.21112 14.6646 0.519123 14.2796C0.904128 13.7406 1.59714 13.4326 2.05914 13.5866C2.13614 13.5866 2.36715 13.6636 2.82915 13.7406C2.36715 13.3556 1.90514 12.9705 1.59714 12.5085C0.673125 11.2765 1.13513 9.81351 1.98214 9.0435C2.67515 8.35049 3.44516 8.19649 3.90716 8.5815C7.2952 11.1995 12.8393 13.1245 14.9183 13.8176L15.1493 13.8946C15.4573 13.9716 15.6883 14.2796 15.6113 14.6646C15.6113 14.9726 15.3803 15.2806 14.9953 15.3576C14.8413 15.4346 14.5333 15.4346 13.9943 15.4346C13.4553 15.4346 12.8393 15.5116 12.3773 15.5886C12.3773 15.5886 12.3003 15.5886 12.1463 15.5886C9.45123 16.2046 2.21314 14.6646 1.75114 14.5106C1.67414 14.5106 1.44313 14.6646 1.21213 14.9726C0.981129 15.5116 1.13513 16.2046 1.67414 16.9746C2.75215 18.5146 7.1412 17.8216 8.68122 17.4366L8.91222 18.3606C8.52722 18.4376 6.6792 18.8996 4.75417 18.8996ZM3.29116 9.35151C3.13715 9.35151 2.75215 9.58251 2.36715 10.0445C2.13614 10.4295 1.75114 11.1995 2.36715 11.9695C4.67717 15.1266 10.8372 14.7416 12.0693 14.6646C12.5313 14.5876 13.2243 14.5106 13.7633 14.5106C11.2223 13.6636 6.37119 11.8155 3.29116 9.35151Z" fill="white"/>
<path d="M15.0723 15.3578C15.0723 15.3578 13.3012 13.5097 11.4532 12.2777C10.0672 11.3537 7.75717 8.73568 6.60216 7.11866C6.14015 6.57965 5.83215 6.11765 5.83215 5.88664C5.83215 5.80964 5.83215 5.80964 5.83215 5.80964C5.83215 5.73264 5.37014 5.73264 4.36913 6.50265C4.06113 6.73365 3.90712 6.96466 3.90712 7.27266C3.83012 8.04267 4.52313 9.04368 4.83114 9.35169L4.13813 9.96769C3.98413 9.81369 2.75211 8.50467 2.90611 7.11866C2.98311 6.57965 3.21412 6.04065 3.75312 5.73264C5.37014 4.50063 6.14015 4.73163 6.52516 5.19364C6.52516 5.19364 6.52516 5.27064 6.60216 5.27064L6.67916 5.19364C6.91016 4.96263 7.37217 4.96263 7.83417 5.27064C9.29719 6.19465 10.2212 7.65767 10.6062 8.27367C10.6832 8.35067 10.7602 8.50468 10.8372 8.58168C12.3002 10.2757 15.7653 14.6647 15.8423 14.7417L15.0723 15.3578ZM7.44917 6.73365C8.52718 8.11967 10.5292 10.5067 11.9152 11.4307C11.2222 10.5837 10.5292 9.73669 10.0672 9.19768C9.9902 9.04368 9.8362 8.88968 9.75919 8.73568C9.52819 8.35067 8.60418 6.96466 7.29517 6.11765C7.29517 6.27165 7.37217 6.50265 7.44917 6.73365Z" fill="white"/>
<path d="M14.6872 14.8188C13.1472 12.5088 8.83513 6.42568 7.52612 5.57867C6.91011 5.19367 6.60211 4.73166 6.67911 4.26966C6.75611 3.42265 7.91112 2.88364 8.83513 2.49863L8.98914 2.42163C9.60514 2.19063 10.5292 1.80563 11.5302 2.26763C12.3772 2.72964 12.9932 3.73065 13.4552 5.42467C13.8402 6.96469 14.2252 8.1967 14.6102 9.27471C15.1492 10.9687 15.6112 12.3548 15.8422 14.4338L15.1492 14.5108L14.6872 14.8188ZM10.5292 3.03764C10.1441 3.03764 9.75915 3.19164 9.37414 3.34564L9.22014 3.42265C7.68012 4.03865 7.68012 4.34666 7.68012 4.42366C7.68012 4.42366 7.75712 4.57766 8.06513 4.80866C9.45114 5.65567 12.9162 10.6607 14.6102 13.0478C14.3792 11.8927 14.0712 10.8147 13.6862 9.65972C13.3012 8.58171 12.9162 7.34969 12.5312 5.73267C12.2232 4.34666 11.6842 3.49965 11.1452 3.19164C10.9142 3.11464 10.6832 3.03764 10.5292 3.03764Z" fill="white"/>
<path d="M9.06616 2.96059C9.06616 2.96059 11.7612 -0.196451 12.9162 2.72958C14.0712 5.65562 15.1492 12.7397 15.2262 13.5097C15.3032 14.2797 13.9942 3.65359 13.5322 1.65157C13.3012 0.881562 14.8412 0.265555 15.6882 0.650559C16.7663 1.03556 17.3053 1.57457 17.4593 2.72958C17.6903 4.73161 17.0743 12.5087 15.7652 13.9717C15.7652 13.9717 18.2293 8.50465 18.3063 2.88359C18.3063 2.88359 18.6913 1.57457 20.2313 1.88257C21.7713 2.19058 22.3103 4.4236 21.9253 5.03961C21.5403 5.65562 18.6143 13.6637 15.8422 14.5107C15.8422 14.5107 18.9223 12.5857 22.3103 4.4236C22.4643 3.9616 23.0033 3.7306 23.4653 3.8076C23.9273 3.9616 24.3123 4.3466 24.3123 5.65562C24.3123 5.88662 24.3123 6.65663 24.1583 6.81063C23.5423 7.50364 20.5393 10.8147 16.0732 14.4337" fill="#5F6DB2"/>
<path d="M14.1482 16.3587L14.6102 15.3577L12.3772 16.0507L15.0722 14.3567L15.2262 14.0487L14.7642 14.1257L14.6872 13.6637C14.6102 12.9706 13.5322 5.88656 12.3772 2.96053C12.1462 2.42152 11.9152 2.11351 11.5302 2.03651C10.7602 1.88251 9.68216 2.96053 9.37416 3.34553L8.68115 2.72952C8.83515 2.57552 10.2982 0.8815 11.7612 1.1125C12.3002 1.1895 12.7622 1.57451 13.1472 2.19052C13.1472 2.03651 13.0702 1.88251 13.0702 1.80551C12.9932 1.42051 13.1472 0.958501 13.4552 0.650498C14.0712 0.111491 15.1492 -0.119511 15.8422 0.188492C16.7662 0.496496 17.6903 1.0355 17.9213 2.49852C18.2293 1.88251 18.9223 1.1895 20.3083 1.49751C21.2323 1.65151 21.9253 2.34452 22.3103 3.42253C22.3103 3.49953 22.3873 3.57653 22.3873 3.65353C22.7723 3.42253 23.1573 3.34553 23.6193 3.42253C24.1583 3.49953 24.7743 3.96154 24.7743 5.57856C24.7743 6.73357 24.5433 6.96457 24.4663 7.11857C23.4653 8.19659 21.0013 10.8916 17.4593 13.8947C17.1513 14.2027 16.9202 14.4337 16.6122 14.5877C16.5352 14.6647 16.4582 14.7417 16.3812 14.7417V14.6647C16.2272 14.7417 16.1502 14.8187 15.9962 14.8187L15.3802 15.0497L14.1482 16.3587ZM15.1492 0.958501C14.7642 0.958501 14.3022 1.1125 14.0712 1.34351C13.9942 1.42051 13.9942 1.49751 13.9942 1.49751C14.3792 3.19153 15.3802 10.6606 15.6112 13.0476C15.8422 12.5086 16.0732 11.8156 16.3812 10.8916C16.9202 8.19659 17.2283 4.26954 16.9972 2.80652C16.9202 1.88251 16.5352 1.49751 15.5342 1.1125C15.3802 1.0355 15.3032 0.958501 15.1492 0.958501ZM17.3053 11.2766C17.1513 11.8926 17.0743 12.4316 16.8432 12.8936C17.4593 12.2006 18.2293 11.2766 19.0763 9.81361C19.7693 8.42759 20.3853 7.04157 20.7703 6.11756C21.1553 5.19355 21.3093 4.80855 21.4633 4.65455C21.5403 4.57754 21.5403 4.11554 21.3093 3.49953C21.2323 3.19153 20.8473 2.49852 20.1543 2.34452C19.1533 2.11352 18.8453 2.72952 18.7683 2.96053C18.6913 6.11756 17.9213 9.1206 17.3053 11.2766ZM19.9233 10.2756C19.8463 10.3526 19.8463 10.5066 19.7693 10.5836C21.6943 8.73559 23.1573 7.19558 23.7733 6.50257C23.7733 6.50257 23.8503 6.11756 23.8503 5.65556C23.8503 5.19355 23.7733 4.42354 23.3113 4.26954C23.0803 4.19254 22.8493 4.34654 22.7723 4.57754C21.7713 6.96457 20.7703 8.8126 19.9233 10.2756Z" fill="white"/>
<path d="M26.7765 24.5207C26.5455 24.5207 26.3915 24.4437 26.1605 24.3667C24.6205 23.7507 22.8495 22.7497 22.7725 22.6727L23.2345 21.8257C23.2345 21.8257 25.0825 22.8267 26.5455 23.4427C26.6225 23.5197 26.9305 23.5967 27.3925 23.0577C28.0085 22.2877 28.1625 21.1326 28.0085 20.9016C27.7775 20.7476 26.3915 20.2086 25.0825 19.7466C21.5404 18.5146 16.7664 16.7436 15.3804 14.8956L16.1504 14.3566C17.3054 15.9736 22.3105 17.7446 25.3905 18.8226C27.7005 19.6696 28.4705 19.9006 28.7015 20.2086C29.2405 20.9016 28.8555 22.5187 28.1625 23.4427C27.7775 24.2127 27.3155 24.5207 26.7765 24.5207Z" fill="white"/>
<path d="M28.4703 20.9789L26.0833 20.2089L26.3913 19.2848L28.1623 19.8238C28.7783 19.1308 28.7013 18.6688 28.6243 18.4378C28.6243 18.3608 28.6243 18.3608 28.6243 18.2838C28.6243 18.0528 28.7013 17.8988 28.7013 17.6678C28.7783 17.3598 28.9323 16.9748 28.8553 16.4358C28.8553 16.2818 28.8553 16.2048 28.7783 16.1278C28.4703 16.2048 28.1623 16.2818 27.8543 16.2818C22.0793 17.2058 15.7652 14.8958 15.5342 14.8188L15.8422 13.8948C15.9192 13.8948 22.2333 16.2048 27.7003 15.2808C28.0083 15.2038 28.2393 15.2038 28.5473 15.1268C28.7013 15.0498 28.9323 15.0498 29.1633 15.1268C29.6253 15.3578 29.7023 15.9738 29.7793 16.2048C29.8563 16.9748 29.7023 17.5908 29.5483 17.8988C29.5483 17.9758 29.4713 18.0528 29.4713 18.1298C29.5483 18.5148 29.7793 19.4388 28.5473 20.5939L28.4703 20.9789Z" fill="white"/>
<path d="M28.4704 16.2817L28.1624 15.3577L28.3164 15.2807C28.4704 15.2037 28.6244 15.2037 28.6244 15.1267C28.6244 15.1267 28.6244 14.8187 28.6244 14.4337C28.6244 14.2027 28.6244 13.8947 28.6244 13.5867C28.6244 12.3546 27.9314 12.0466 27.7004 11.9696C25.0824 13.5097 16.3813 15.1267 15.9963 15.1267L15.8423 14.2027C15.9193 14.2027 25.0824 12.5856 27.3154 11.0456L27.4694 10.9686H27.6234C28.3164 10.9686 29.6254 11.5846 29.6254 13.5867C29.6254 13.9717 29.6254 14.2027 29.6254 14.4337C29.6254 15.5887 29.6254 15.8197 28.7014 16.1277L28.4704 16.2817Z" fill="white"/>
<path d="M27.6233 11.9695L26.7763 11.5075C27.1613 10.8915 26.4683 10.1985 26.4683 10.1985L27.1613 9.50549C27.2383 9.50549 28.3933 10.7375 27.6233 11.9695Z" fill="white"/>
<path d="M16.2273 15.1267L15.9963 14.2027C19.7694 13.1247 26.0835 10.8146 26.6225 9.19761C26.6995 9.04361 26.6995 8.88961 26.5455 8.73561C26.0835 8.0426 25.7755 8.0426 25.5445 7.9656C24.8514 7.81159 24.4664 7.58059 23.8504 6.11757L24.7744 5.80957C25.2364 6.96458 25.4675 6.96458 25.6985 7.04159C26.1605 7.11859 26.6225 7.27259 27.3155 8.1966C27.6235 8.5816 27.7005 9.04361 27.4695 9.50561C26.6225 12.1236 17.3054 14.8187 16.2273 15.1267Z" fill="white"/>
<path d="M26.3914 52.8571H25.3904C25.3904 51.3171 24.4664 43.001 20.2313 42.77C18.3063 42.616 16.7663 41.923 15.8423 40.614C13.9172 38.0729 14.6873 34.2229 14.6873 34.0689L14.7643 33.8379L14.9183 33.7609C15.8423 33.1449 17.2283 33.0679 18.5373 33.4529C20.1543 33.9149 21.4633 35.1469 22.1563 36.7639C23.1574 39.2279 22.8494 40.152 22.6184 40.614V40.691C23.3884 41.538 24.1584 42.385 24.7744 43.001C24.5434 42.385 24.2354 41.538 24.0044 40.999C23.5424 39.8439 23.3114 39.2279 23.2344 38.9199C22.1563 32.0669 20.3083 28.0628 20.2313 27.9858L21.1553 27.5238C21.2323 27.6778 23.1574 31.6819 24.2354 38.6889C24.2354 38.9199 24.6204 39.8439 24.9284 40.614C26.0064 43.463 26.1604 44.079 25.9294 44.464L25.7754 44.695H25.4674C25.0054 44.695 24.6204 44.31 21.9253 41.307C21.5403 40.845 21.6943 40.46 21.7713 40.229C21.9253 39.8439 22.1563 39.1509 21.3093 37.1489C20.6933 35.7629 19.6923 34.7619 18.3063 34.3769C17.2283 34.0689 16.2273 34.1459 15.6883 34.4539C15.5343 35.2239 15.2263 38.1499 16.6893 39.998C17.4593 41.076 18.7683 41.615 20.3853 41.769C25.9294 42.077 26.3914 52.7031 26.3914 52.8571Z" fill="white"/>
<path d="M27.3155 52.857C27.3155 52.703 26.1605 40.0749 22.3875 27.6007L23.3115 27.2927C27.1615 39.8439 28.3165 52.626 28.3165 52.703L27.3155 52.857Z" fill="white"/>
<path d="M21.3094 40.1521C21.2324 40.1521 21.2324 40.1521 21.1554 40.1521C18.9224 39.8441 16.5353 34.377 16.2273 33.761L15.9963 33.145L16.6893 33.222C18.3834 33.453 22.3104 38.0731 22.0794 39.5361C22.0794 39.8441 21.8484 40.1521 21.3094 40.1521ZM17.3824 34.454C18.3834 36.6101 20.0774 39.2281 21.2324 39.3821C21.3094 39.3821 21.3864 39.3821 21.3864 39.3821C21.3864 39.3821 21.3094 38.9971 20.7704 38.0731C19.8464 36.6871 18.4604 35.147 17.3824 34.454Z" fill="white"/>
<path d="M19.1532 41.3069C18.4602 41.3069 17.8442 41.0759 17.1512 40.5369C14.7642 38.6889 14.7642 34.2998 14.7642 34.0688H15.4572C15.4572 33.9148 15.3802 33.8378 15.3802 33.8378L16.1502 33.6838C16.1502 33.7608 17.2282 39.8439 21.1552 39.3819L22.0022 39.3049L21.5402 39.9979C21.5402 40.0749 20.6932 41.2299 19.3072 41.3069C19.2302 41.3069 19.2302 41.3069 19.1532 41.3069ZM15.5342 34.2998C15.6112 35.1469 15.8422 38.5349 17.6902 39.9209C18.2292 40.3829 18.7682 40.5369 19.3072 40.5369C19.6922 40.5369 20.0772 40.3829 20.3082 40.1519C17.0742 39.8439 15.8422 35.6859 15.5342 34.2998Z" fill="white"/>
<path d="M19.7693 42.154L19.0763 41.923L19.4613 42.077L19.0763 41.923C19.0763 41.923 19.2303 41.538 18.9993 41.2299L19.6153 40.7679C20.0773 41.461 19.7693 42.154 19.7693 42.154Z" fill="white"/>
<path d="M21.2324 38.9969C21.1554 37.9959 20.9244 36.3789 20.6934 35.9939L21.3094 35.6089C21.6944 36.2249 21.9254 38.5349 22.0024 38.9969H21.2324Z" fill="white"/>
</svg>
