<svg width="47" height="41" viewBox="0 0 47 41" fill="none" xmlns="http://www.w3.org/2000/svg">
<path d="M22.4843 40.2088C9.00911 40.2088 0.770009 27.5806 0.616007 27.4266L0.539006 27.2726L0 25.7326L16.4782 23.1916L16.7092 23.5766C19.5582 28.8126 22.4073 30.5066 23.2543 30.8916C30.9544 25.8096 31.3394 18.8795 31.3394 18.8025V18.1095L46.2775 22.0365L46.0465 22.6526C44.5065 26.4256 41.2725 30.5066 38.8855 33.2787C37.3454 35.0497 35.4974 36.5127 33.4184 37.5137C29.5683 39.4387 25.8723 40.2088 22.4843 40.2088ZM1.69402 26.8876C2.07902 27.4266 5.15906 31.8927 10.2411 35.2037C17.4792 39.9008 25.1023 40.3628 33.0334 36.4357C34.9584 35.5117 36.7294 34.1257 38.1925 32.5087C40.0405 30.4296 43.2745 26.5026 44.8915 22.8066L32.5714 19.5725C32.2634 21.5745 30.8004 27.5806 23.7933 32.0467L23.5623 32.2007L23.1773 32.1237C23.0233 32.0467 19.4812 30.8146 15.9392 24.5006L1.61702 26.7336L1.69402 26.8876Z" fill="white"/>
<path d="M29.6453 33.2787C27.4123 33.2787 25.2563 32.8937 23.1772 32.1237L23.5623 31.0457C28.7213 32.8937 34.2654 32.3547 40.8875 29.2747L41.3495 30.3527C37.1914 32.2777 33.2644 33.2787 29.6453 33.2787Z" fill="white"/>
<path d="M1.15502 26.6565L0.38501 25.8094L8.3161 18.4174L16.5552 23.4224L15.9392 24.3464L8.47011 19.8034L1.15502 26.6565Z" fill="white"/>
<path d="M7.16112 24.7315H6.0061C6.0061 24.1155 7.16112 21.1124 7.85413 19.3414L8.31613 18.1864L11.3962 24.2695L10.3952 24.8085L8.47013 21.0354C7.85413 22.7295 7.23812 24.4235 7.16112 24.7315Z" fill="white"/>
<path d="M3.16263 5.31164L2.09644 5.75586L8.01935 19.9718L9.08554 19.5275L3.16263 5.31164Z" fill="white"/>
<path d="M36.2675 20.1114L35.4205 19.3414L38.1925 16.1844L32.1865 19.2644L31.6475 18.2634L40.5026 13.7974L40.8106 14.1824C41.0416 14.4904 41.1186 14.7214 40.1176 15.8764L36.2675 20.1114Z" fill="white"/>
<path d="M45.1226 22.5753L41.1955 15.8762V21.1893H40.0405V15.0292C40.0405 14.7212 40.5795 13.9512 40.8875 13.8742L41.2725 13.7202L41.5035 14.1052L46.1236 21.9593L45.1226 22.5753Z" fill="white"/>
<path d="M44.181 -5.5527e-05L40.0322 14.8303L41.1445 15.1415L45.2933 0.311105L44.181 -5.5527e-05Z" fill="white"/>
<path d="M17.9412 13.1814L20.5592 12.4114L19.7122 16.3384L21.5602 15.7994L21.7142 16.3384L19.0192 17.1854L19.8662 13.2584L18.0952 13.7974L17.9412 13.1814Z" fill="white"/>
<path d="M18.7882 17.4164L19.6352 13.4893L18.0182 13.9513L17.7102 13.1043L20.7902 12.1803L19.9432 16.1073L21.6373 15.5683L21.9453 16.4923L18.7882 17.4164ZM20.0972 12.9503L19.2502 16.8774L21.4062 16.1843L21.3292 16.0303L19.4042 16.6464L20.2512 12.7193L18.0952 13.3353L18.1722 13.4893L20.0972 12.9503Z" fill="white"/>
<path d="M13.3982 14.5674L16.0162 13.7974L15.1692 17.7244L17.0172 17.1854L17.1712 17.7244L14.4762 18.4944L15.3232 14.5674L13.5522 15.1064L13.3982 14.5674Z" fill="white"/>
<path d="M14.2452 18.8025L15.0923 14.8754L13.4752 15.3374L13.1672 14.4904L16.2473 13.5664L15.4773 17.4165L17.1713 16.8774L17.4793 17.8015L14.2452 18.8025ZM15.5543 14.3364L14.7073 18.2635L16.8633 17.5705L16.7863 17.4165L14.8613 18.0325L15.7083 14.1054L13.5522 14.7214L13.6292 14.8754L15.5543 14.3364Z" fill="white"/>
<path d="M22.4844 11.7954L25.1024 11.0254L24.2554 14.9524L26.1034 14.4134L26.2574 14.9524L23.5624 15.7994L24.4094 11.8724L22.6384 12.3344L22.4844 11.7954Z" fill="white"/>
<path d="M23.3314 16.0305L24.1784 12.1034L22.5614 12.5654L22.2534 11.6414L25.3335 10.7174L24.5634 14.6445L26.2575 14.1054L26.5655 15.0295L23.3314 16.0305ZM24.6404 11.5644L23.8704 15.4145L26.0265 14.7215L25.9495 14.6445L24.0244 15.2605L24.8715 11.3334L22.7154 11.9494L22.7924 12.1034L24.6404 11.5644Z" fill="white"/>
</svg>
