<svg width="38" height="45" viewBox="0 0 38 45" fill="none" xmlns="http://www.w3.org/2000/svg">
<g clip-path="url(#clip0_45_465)">
<path d="M19 43.6901C8.54618 43.6901 0 35.0599 0 24.5034C0 13.9469 8.54618 5.31677 19 5.31677C29.4538 5.31677 38 13.9469 38 24.5034C38 35.0599 29.4538 43.6901 19 43.6901ZM19 7.24314C9.61446 7.24314 1.90763 14.9486 1.90763 24.5034C1.90763 33.9812 9.53815 41.7637 19 41.7637C28.4618 41.7637 36.0924 34.0582 36.0924 24.5034C36.0924 14.9486 28.3855 7.24314 19 7.24314Z" fill="white"/>
<path d="M13.6586 26.0444C18.6313 26.0444 22.6626 25.1475 22.6626 24.041C22.6626 22.9346 18.6313 22.0376 13.6586 22.0376C8.68578 22.0376 4.65454 22.9346 4.65454 24.041C4.65454 25.1475 8.68578 26.0444 13.6586 26.0444Z" fill="#7673C0"/>
<path d="M13.6586 26.5068C10.1486 26.5068 4.19678 25.9674 4.19678 24.0411C4.19678 22.1147 10.1486 21.5753 13.6586 21.5753C17.1687 21.5753 23.1205 22.1147 23.1205 24.0411C23.1205 25.9674 17.1687 26.5068 13.6586 26.5068ZM5.18875 24.0411C5.34136 24.5805 8.39356 25.5822 13.7349 25.5822C19.0763 25.5822 22.1285 24.5805 22.2811 24.0411C22.1285 23.5017 19.0763 22.5 13.7349 22.5C8.39356 22.5 5.34136 23.5017 5.18875 24.0411Z" fill="white"/>
<path d="M12.2852 14.6404L12.8957 15.7962C12.972 15.9503 13.1246 16.0273 13.2772 15.9503C14.727 15.1797 21.5945 11.5582 23.8073 10.0171C27.1647 7.55132 32.8113 3.92975 35.3294 3.85269C35.3294 3.85269 37.7712 0.46228 35.2531 0.46228C32.735 0.539335 22.8917 7.47427 19.5342 10.0171C16.7109 12.2517 13.2772 13.7928 12.3615 14.2551C12.2089 14.3321 12.2089 14.4863 12.2852 14.6404Z" fill="#7673C0"/>
<path d="M13.1245 16.4127C13.0482 16.4127 12.9719 16.4127 12.8956 16.4127C12.6666 16.3356 12.514 16.1815 12.4377 16.0274L11.8273 14.8716C11.751 14.7175 11.751 14.4863 11.751 14.2551C11.8273 14.024 11.9799 13.8699 12.1325 13.7928C13.1245 13.3305 16.4819 11.7894 19.2289 9.63185C21.8233 7.62842 32.4297 0.0770548 35.253 0C36.1687 0 36.5502 0.385274 36.7028 0.693493C37.3132 1.84932 35.9397 3.77568 35.7108 4.16096L35.5582 4.39212H35.3293C33.5743 4.39212 29.4538 6.62671 24.0361 10.4024C21.8233 11.9435 14.8795 15.6421 13.506 16.4127C13.3534 16.4127 13.2008 16.4127 13.1245 16.4127ZM12.7429 14.5634L13.1245 15.3339C14.8032 14.4092 21.2891 11.0188 23.4257 9.47774C27.3172 6.78082 32.4297 3.54452 35.0241 3.31336C35.5582 2.54281 36.016 1.46404 35.8634 1.07877C35.7871 0.924657 35.4056 0.924658 35.253 0.924658C33.1164 0.924658 23.9598 7.1661 19.8393 10.3253C17.1686 12.4829 13.9638 14.024 12.7429 14.5634Z" fill="white"/>
<path d="M7.02002 18.8013L7.70677 20.1112C7.78307 20.1883 7.93568 20.2653 8.01199 20.1883L8.54612 19.5718C8.62243 19.4948 8.62243 19.4177 8.54612 19.3407L7.85938 18.0307C7.78307 17.9537 7.70677 17.8766 7.55416 17.9537L7.02002 18.5701C7.02002 18.6472 7.02002 18.7242 7.02002 18.8013Z" fill="#7673C0"/>
<path d="M7.85936 20.4965C7.63045 20.4965 7.47784 20.3424 7.47784 20.2654L6.79109 18.9554C6.71478 18.8013 6.71478 18.5702 6.86739 18.4161L7.40153 17.7996C7.55414 17.6455 7.70675 17.6455 7.85936 17.6455C8.01197 17.6455 8.08828 17.7996 8.16458 17.8767L8.85133 19.2637C8.92763 19.4178 8.85133 19.6489 8.77502 19.726L8.24089 20.3424C8.08828 20.4965 8.01197 20.4965 7.85936 20.4965ZM7.32523 18.7243L7.93567 19.8801L8.31719 19.4948L7.70675 18.339L7.32523 18.7243Z" fill="white"/>
<path d="M7.63037 17.9537C7.93559 18.339 8.24081 18.8013 8.54603 19.3407L7.85929 18.0308C7.85929 17.9537 7.70668 17.9537 7.63037 17.9537Z" fill="#7673C0"/>
<path d="M8.1646 19.649C7.85938 19.1867 7.55416 18.7243 7.32524 18.4161L7.02002 17.9538L7.32524 17.6456C7.47785 17.4915 7.70677 17.4915 7.85938 17.4915C8.08829 17.5685 8.2409 17.6456 8.31721 17.7997L9.00396 19.1096L8.1646 19.649Z" fill="white"/>
<path d="M12.8193 23.887C14.9558 23.0394 15.6426 22.0377 16.3293 21.5753C17.0924 21.036 16.5582 20.8048 16.0241 20.2654C15.49 19.726 12.5141 16.1045 11.9799 14.7175C11.4458 13.4075 11.1406 13.9469 10.9117 13.9469C10.6827 13.9469 8.01206 15.8733 8.01206 15.8733C7.24901 16.4127 6.79118 16.4897 6.94379 16.9521C7.24901 17.6456 7.17271 17.5685 7.55423 18.0308C7.63054 17.9538 7.78315 17.9538 7.85945 18.1079L8.5462 19.4178C8.92773 20.0343 9.30925 20.6507 9.69078 21.4212C10.1486 22.4229 10.7591 23.4247 10.988 23.8099L12.8193 23.887Z" fill="#7673C0"/>
<path d="M12.8955 24.3493L10.6064 24.2723L10.5301 23.964C10.4538 23.8099 10.3011 23.5017 10.0722 23.1164C9.84331 22.6541 9.53809 22.1147 9.23287 21.5753C8.92765 20.9589 8.54613 20.2654 8.1646 19.649L8.08829 19.4949L7.63046 18.5702L7.55416 18.6473L7.09633 18.0308C6.86741 17.7226 6.86741 17.7226 6.56219 17.1062C6.25697 16.3356 6.79111 16.0274 7.24894 15.7962C7.40155 15.7192 7.55416 15.5651 7.78307 15.488C10.5301 13.4846 10.759 13.4846 10.9116 13.4846C10.9879 13.4075 11.2931 13.3305 11.5983 13.4075C11.9036 13.5616 12.2088 13.8699 12.4377 14.5633C12.9718 15.7962 15.8714 19.4178 16.4056 19.9572C16.4819 20.0342 16.5582 20.1113 16.6345 20.1883C16.9397 20.4966 17.2449 20.7277 17.2449 21.1901C17.2449 21.5753 16.8634 21.8836 16.6345 22.0377C16.4819 22.1147 16.3293 22.2688 16.1003 22.5C15.4899 23.0394 14.7268 23.8099 13.0481 24.4264L12.8955 24.3493ZM11.2931 23.3476L12.7429 23.4247C14.1927 22.8853 14.8795 22.1918 15.4136 21.7294C15.6425 21.4983 15.7951 21.3442 16.024 21.1901C16.1003 21.113 16.1766 21.113 16.1766 21.036C16.1003 20.9589 16.024 20.8818 15.9477 20.8048C15.8714 20.7277 15.7951 20.6507 15.7188 20.5736C15.1847 20.0342 12.1325 16.2586 11.5983 14.8716C11.4457 14.5633 11.3694 14.4092 11.2931 14.3322C11.2168 14.3322 11.1405 14.4092 11.0642 14.4092C10.6827 14.4863 9.46179 15.411 8.31721 16.1815C8.08829 16.3356 7.85938 16.4897 7.70677 16.5668C7.63046 16.6438 7.47785 16.7209 7.47785 16.7209C7.70677 17.2603 7.70677 17.2603 7.85938 17.4144C8.08829 17.4914 8.2409 17.5685 8.31721 17.7226L9.08026 19.1096C9.53809 19.726 9.84331 20.4195 10.1485 21.036C10.3775 21.5753 10.6827 22.1147 10.9116 22.5C11.0642 22.8853 11.2168 23.1164 11.2931 23.3476Z" fill="white"/>
<path d="M15.0319 24.1182C15.4135 23.887 17.0159 22.423 17.3211 22.1148C18.4657 21.1901 16.3291 21.036 16.3291 21.036C14.4978 22.7312 12.285 23.887 11.9797 23.9641L15.0319 24.1182Z" fill="#7673C0"/>
<path d="M15.1083 24.5805L9.99585 24.3493L11.7509 23.5017C11.7509 23.5017 14.04 22.3459 15.9477 20.6507L16.1003 20.4966H16.3292C16.8633 20.4966 17.8553 20.6507 18.0842 21.2671C18.2368 21.6524 18.0842 22.0377 17.6264 22.3459C17.5501 22.423 17.2448 22.6541 17.0159 22.8853C16.1766 23.5788 15.5661 24.1952 15.2609 24.3493L15.1083 24.5805ZM13.7348 23.5788L14.8794 23.6558C15.1846 23.4247 15.9477 22.7312 16.3292 22.3459C16.6344 22.0377 16.8633 21.8065 17.0159 21.7295L17.0922 21.6524C16.9396 21.5753 16.7107 21.5753 16.5581 21.5753C15.5661 22.3459 14.5742 23.0394 13.7348 23.5788Z" fill="white"/>
<path d="M16.9399 24.0411L7.63062 23.5787L11.3696 28.7414L16.9399 24.0411Z" fill="#7673C0"/>
<path d="M22.6628 24.2722V42.9965C22.6628 42.9965 13.0484 46.8493 4.65479 42.3801V24.8887C4.65479 24.6575 4.96001 24.5034 5.11262 24.6575C5.95197 25.1969 8.16482 26.0445 13.4299 26.0445C20.9841 25.9674 22.4339 24.5804 22.6628 24.2722Z" fill="#7673C0"/>
<path d="M13.8877 44.9999C10.9881 44.9999 7.63062 44.4606 4.50211 42.7653L4.27319 42.6112V24.8886C4.27319 24.5804 4.4258 24.3493 4.65472 24.1951C4.88364 24.041 5.18886 24.041 5.49408 24.1951C6.33343 24.6575 8.39368 25.5051 13.5061 25.5051C21.0603 25.5051 22.2812 24.041 22.2812 23.964L22.5101 23.6558L23.1969 23.8869V24.2722V43.3047L22.8917 43.4588C22.5864 43.5359 18.7712 44.9999 13.8877 44.9999ZM5.18886 42.0719C12.3615 45.6934 20.5262 43.2277 22.2049 42.6112V25.1969C21.0603 25.8133 18.6949 26.5068 13.5061 26.5068C8.62259 26.5068 6.25713 25.7362 5.18886 25.1969V42.0719Z" fill="white"/>
<path d="M7.26068 11.1792L5.89844 12.5278L30.953 38.3345L32.3153 36.9858L7.26068 11.1792Z" fill="white"/>
<path d="M13.201 25.1969C10.8355 25.1969 9.08049 24.7345 8.54635 24.2722C8.31743 24.041 8.24113 23.8099 8.31743 23.6558C8.54635 23.0393 10.3014 22.8082 10.5303 22.8082V22.9623C9.99615 23.0393 8.62265 23.2705 8.47004 23.6558C8.39374 23.8099 8.47004 23.8869 8.62265 24.041C9.15679 24.5804 12.3616 25.351 16.3295 24.6575C17.0925 24.5034 18.7712 24.2722 18.7712 23.8099C18.7712 23.7328 18.6949 23.5017 18.0082 23.1164C17.6267 22.9623 17.0925 22.8082 16.3295 22.8082V22.6541C17.0925 22.6541 17.6267 22.7311 18.0845 22.9623C18.7712 23.2705 19.0002 23.5787 19.0002 23.8099C18.9239 24.3493 17.6267 24.5804 16.4058 24.8116C15.2612 25.1198 14.1929 25.1969 13.201 25.1969Z" fill="white"/>
<path d="M13.5824 24.7346C11.5985 24.7346 9.61457 24.4264 9.30935 24.1952C9.15674 24.0411 9.15674 23.887 9.15674 23.7329C9.30935 23.3476 10.3013 23.1935 10.5302 23.1935V23.3476C10.0724 23.4246 9.46196 23.5017 9.38565 23.7329C9.38565 23.8099 9.38565 23.887 9.46196 23.964C9.76718 24.2722 13.5824 24.7346 15.8716 24.3493C16.2531 24.2722 17.2451 24.1181 17.3214 23.887C17.3214 23.887 17.3214 23.7329 16.8636 23.5788C16.6347 23.5017 16.3294 23.4246 15.8716 23.4246V23.2705C16.3294 23.2705 16.6347 23.3476 16.9399 23.4246C17.3214 23.5788 17.474 23.8099 17.474 23.964C17.3977 24.2722 16.711 24.4264 15.8716 24.5805C15.2612 24.6575 14.4218 24.7346 13.5824 24.7346Z" fill="white"/>
<path d="M13.1247 25.351C10.3777 25.351 8.31743 24.8116 7.70699 24.2722C7.47808 24.0411 7.40177 23.8099 7.47808 23.5787C7.7833 22.8082 9.84354 22.6541 10.0725 22.577V22.7311C9.46201 22.8082 7.8596 23.0394 7.63069 23.5787C7.55438 23.7328 7.63069 23.887 7.8596 24.1181C8.54635 24.8116 12.209 25.6592 16.8636 24.8887C17.7793 24.7346 19.6869 24.4263 19.7632 23.887C19.7632 23.7328 19.6869 23.5017 18.8476 23.1164C18.3897 22.8852 17.703 22.8082 16.8636 22.8082V22.6541C17.703 22.6541 18.3897 22.7311 18.9239 22.9623C19.6869 23.3476 19.9921 23.6558 19.9921 23.964C19.9158 24.5805 18.466 24.8887 16.9399 25.1198C15.5664 25.2739 14.2692 25.351 13.1247 25.351Z" fill="white"/>
<path d="M6.63861 38.6045H6.25708V32.0548C6.25708 31.2072 6.40969 30.7449 6.71491 30.5908C6.79122 30.5908 6.86752 30.5137 6.94383 30.5908V25.4281H7.32535V31.2072L7.02013 30.899C7.02013 30.899 6.94383 30.8219 6.86752 30.8219C6.86752 30.8219 6.63861 30.976 6.63861 31.9007V38.6045Z" fill="white"/>
</g>
<defs>
<clipPath id="clip0_45_465">
<rect width="38" height="45" fill="white"/>
</clipPath>
</defs>
</svg>
